<svg xmlns="http://www.w3.org/2000/svg" width="636.66" height="240" viewBox="0 0 636.66 240"><path d="M78.59 2.81H0V238.7h78.66v-39.31h39.26V42.06H78.59zm-.13 196.49h-39V42.2h39zM197.27 42.18h44.64V2.79h-84v235.93h84.05V199.3h-44.69zm108 30.36a40.4 40.4 0 0 0 8.85-.81c11.72-2.55 20-9.15 24-20.64a41.19 41.19 0 0 0 .11-26.57 29.64 29.64 0 0 0-14.46-17.47 38.11 38.11 0 0 0-18.57-4.32h-23.15a2 2 0 0 0-1.25.15v69.65h1.44c7.67 0 15.35-.02 23.02.01zM294.51 15.4c5.24.24 10.47-.51 15.6.5 8.57 1.69 14.31 7.93 15.59 16.7a30.9 30.9 0 0 1-.63 13c-2.34 8.32-8.84 13.64-17.72 14.2-4.26.27-8.56 0-12.84 0-.17-1.03-.2-42.94 0-44.4zm136.3 95.11c-5.89-.11-10.92 1.9-14.75 6.95v-5.55h-12.45v48.36h13v-1.39-26a20.71 20.71 0 0 1 .2-2.83c.64-4.84 4.47-7.85 9.61-7.59 4.61.24 7.65 3.37 7.7 8.29.1 9.36 0 18.72.08 28.09 0 .47-.16 1 .13 1.38h12.91v-1.45-26.23a12.4 12.4 0 0 1 .79-4.72c1.46-3.64 4.72-5.58 9-5.35a7.46 7.46 0 0 1 7.28 5.78 12.61 12.61 0 0 1 .37 3.3v27.35a2.39 2.39 0 0 0 .14 1.34h12.6c0-.27.05-.47.05-.67v-31.68a19.45 19.45 0 0 0-2.22-9c-5.41-10.27-19.84-10-26-5.38a22 22 0 0 0-4.65 4.9c-3-5.56-7.86-7.79-13.79-7.9zM396 70a14.47 14.47 0 0 0 9.66-5.68 36.13 36.13 0 0 1-.24 6.89c-.73 4.38-2.84 7.68-7.27 9.12a17.12 17.12 0 0 1-4.26.72c-6 .39-10.69-2.72-12.16-8.11-.09-.3 0-.67-.44-1L369.69 75c.08.51.12.91.22 1.31 1.51 6.21 5.36 10.56 10.94 13.45s11.6 3.31 17.71 2.43 11.48-3.5 15.26-8.66c3.5-4.77 4.79-10.24 4.8-16v-42.2a2.29 2.29 0 0 0-.14-1.25H406v5.42a11 11 0 0 0-5-4.5c-8.06-3.37-15.78-2.53-22.55 2.92-8 6.44-10.16 15.18-8 24.93C373 64.79 384 72 396 70zm-3.6-35.2a11.24 11.24 0 0 1 13.28 9.53c.55 3.81.09 7.46-2.35 10.55-3.14 4-7.43 4.88-12.13 3.72s-7.15-4.43-8-9c-.09-.49-.15-1-.2-1.47s0-.82 0-.92c-.09-6.74 3.53-11.34 9.41-12.44zm-48.05 104.36c.13-.38.35-.76.08-1.22L332 134.2a2.55 2.55 0 0 0-.24.42c-2.94 8.42-8.83 13.13-17.75 13.72-7.93.53-14.48-2.29-19.17-8.83-3.36-4.69-4.33-10.07-4.07-15.73.66-14.08 10.89-22.09 22.57-21.58 5.25.24 9.93 1.85 13.61 5.8a19.28 19.28 0 0 1 4.37 8.25l12.72-4a3.53 3.53 0 0 0 0-.38 2.65 2.65 0 0 0-.09-.49 29.36 29.36 0 0 0-11.62-16.54A33 33 0 0 0 313 89.07c-13.94 0-24.86 5.71-31.79 18-5.43 9.59-5.94 19.93-2.83 30.4A32.54 32.54 0 0 0 296 158.12a36.65 36.65 0 0 0 23.86 2.93c12.39-2.51 20.58-9.86 24.49-21.89zm155.78 16.67c.73.7 1.28 1.29 1.9 1.79a18.71 18.71 0 0 0 10.75 3.82 21.79 21.79 0 0 0 21-11.7 30.83 30.83 0 0 0 2.87-18.62 24.24 24.24 0 0 0-6.19-13.86c-5.21-5.52-11.78-7.08-19.08-6.26a17.3 17.3 0 0 0-9.11 3.79 16.63 16.63 0 0 0-2.51 2.73v-5.59h-12.71v67h13.08zm5.43-31.41a11.74 11.74 0 0 1 18 7.67 17 17 0 0 1-1.07 11.11 11.43 11.43 0 0 1-11.49 6.48 11.77 11.77 0 0 1-10.38-8.89 19.1 19.1 0 0 1-.63-5c.09-4.47 1.4-8.65 5.57-11.37zm8.91-81.67c-2.32.38-4.65.66-7 1-3.32.54-6.7.78-9.92 1.94-10.94 4-11.89 15.55-6.95 21.83 4.36 5.53 10.34 6.85 17 6a15.44 15.44 0 0 0 11-6.63 45.59 45.59 0 0 0 .63 5.44h12a86.55 86.55 0 0 1-.6-13.63V40.38c0-8.38-4.63-14.52-12.61-16.84a29.56 29.56 0 0 0-9.54-1.06c-5.8.25-11 2-15.12 6.29a16.08 16.08 0 0 0-4.57 9.7L500.44 41c.48-3.27 2-5.68 4.9-7a11.06 11.06 0 0 1 8.66-.1 5.69 5.69 0 0 1 3.51 3.59c.97 2.8-.16 4.78-3.04 5.26zm2.43 15.51c-1.84 4.64-8.17 7.21-12.72 5.15a5.14 5.14 0 0 1-3.18-4.75 5.41 5.41 0 0 1 2.83-5.24 14.09 14.09 0 0 1 5.1-1.32c2.92-.44 5.85-.91 8.92-1.39a18.45 18.45 0 0 1-.95 7.55zM394 130.34a34.46 34.46 0 0 0-.2-4.31c-.8-6.39-3.95-11.11-9.95-13.67a27.53 27.53 0 0 0-14.93-1.7c-6.55 1-11.81 4-15.07 10a13 13 0 0 0-1.7 5.76l11.5 2.43c1.05-4.35 2.78-6.43 6.21-7.41a11.29 11.29 0 0 1 7.39.33 5.73 5.73 0 0 1 3.49 3.45c1.09 3-.07 5-3.17 5.45-2.36.37-4.74.66-7.09 1-3.29.54-6.63.79-9.8 2-10.56 4-11.34 14.69-7.5 20.7a15.35 15.35 0 0 0 11.82 7.1c6.62.79 12.45-.74 16.71-6.32.05-.08.18-.1.32-.18a32.19 32.19 0 0 0 .57 5.31h11.9c-.15-1.81-.4-3.56-.42-5.31-.08-8.21-.08-16.42-.08-24.63zm-13.9 16.07c-2.1 5.14-8.4 6.16-11.89 5.11a5.24 5.24 0 0 1-3.9-4.87 5.57 5.57 0 0 1 3.48-5.72 23.23 23.23 0 0 1 5.67-1.16l7.63-1.19a17.27 17.27 0 0 1-.99 7.83zm196.77 9.14c.28 1.66 0 3.24.54 4.71h12.3c-.58-16.17-.06-32.27-.32-48.38h-13.16V140.19c0 7.54-6 10.45-11.92 8.95-3.62-.92-5.92-4.26-6-8.71-.08-9.08 0-18.15-.07-27.23 0-.43.14-.89-.1-1.27h-13v32c.61 9.51 6.61 16.75 16.44 17.56 4.89.4 9.45-.5 13.27-3.84.74-.6 1.31-1.34 2.02-2.1zM309.05 209v-.19l1-.52a12.71 12.71 0 0 0 5.59-5.41c4.7-9-.95-19.93-11.27-21.75a30.67 30.67 0 0 0-5.66-.46h-17.9v58c.32 0 .57.05.81.05h20.18a19.92 19.92 0 0 0 5.73-.89c11.73-3.56 13.72-15.41 9.37-22.7a13.45 13.45 0 0 0-7.85-6.13zm-20.18-21.21c4 .14 8-.34 11.93.22 5.41.76 8.56 4.42 8.26 9.19-.31 5.15-3.84 8.54-9.35 8.77-3.58.15-7.18 0-10.84 0zm21.24 38c-1.38 3.4-4.16 5-7.61 5.56-2.94.51-5.92.18-8.89.25h-4.75V213c4.44.08 8.77-.17 13.1.13 6.68.43 10.62 6.61 8.15 12.72zm323.55-88.68a17.07 17.07 0 0 0-9.44-5.74c-3.23-.83-6.52-1.41-9.75-2.23-2.21-.56-3.37-1.93-3.47-3.68a4.53 4.53 0 0 1 3-4.51 7.82 7.82 0 0 1 11 5.39 2.55 2.55 0 0 0 .25.5l10.85-2.45a14.93 14.93 0 0 0-4.62-9c-3.31-3.16-7.41-4.49-11.87-4.89-4.91-.43-9.56.34-13.69 3.16-5 3.39-7.46 8.1-6.91 14.14s4.17 9.56 9.47 11.74a54.23 54.23 0 0 0 7.62 2.05c2 .51 4.08.69 5.89 1.78a4.17 4.17 0 0 1 0 7.25 7 7 0 0 1-2.65 1c-4.46.71-9.73-1.28-10.44-6.92 0-.1-.13-.19-.21-.3l-11.12 2.44a16.16 16.16 0 0 0 5.74 10.36c6.7 5.6 19 6.29 26.3 1.52s9.39-14.94 4.05-21.55zm-176.15-100v21c0 5.12 1.54 9.67 6.13 12.52 5 3.12 10.49 2.92 16 1.52.65-.16.64-.62.64-1.13v-9.16c0-.27.12-.58-.17-.79a20.89 20.89 0 0 1-4.8.27c-3.25-.31-4.7-1.86-4.71-5.15v-19.8-.86h9.58V24h-9.66V9.61h-11.81v7.18c-.06 4.28-2.75 7-7 7.18h-2.81V35.7h8.63zm-21.26 142.45h-7.69v24.77c-2.41-3.21-4.11-4.51-6.85-5.32a17.82 17.82 0 0 0-19.25 6.22c-4.13 5.36-5.15 11.48-4.17 18 1.3 8.57 7.07 15.69 16.56 16.48 5.22.44 9.71-1 13-5.31.28-.37.53-.75.93-1.31a29.86 29.86 0 0 0 .43 5.59h7.27c-.41-19.79-.03-39.48-.23-59.12zm-9.88 48.19a10.63 10.63 0 0 1-18.4-.11 17.44 17.44 0 0 1-2.11-8.77 15.78 15.78 0 0 1 2.34-8.7 10.51 10.51 0 0 1 10.23-5 9.73 9.73 0 0 1 8.67 6.05 17.54 17.54 0 0 1-.73 16.53zm126.88-225h-13v69.68h13zM468 198.89c-7.35-1.93-14-.45-19.18 5.29-5.46 6-6.59 13.27-4.71 20.92 4 16.13 22.6 18.45 31.59 10.39a17.22 17.22 0 0 0 5.15-8l-6.59-2.28c-3.05 6.53-7.76 9.08-13.91 7.6a11.54 11.54 0 0 1-8.92-11.51H481a26.43 26.43 0 0 0-.47-8.64c-1.59-6.93-5.42-11.91-12.53-13.77zm-16.32 16a10.51 10.51 0 0 1 11.1-9.91c6 .2 10.25 4.31 10.18 9.91zm68.86-2.19c0-4.87-1.56-9.09-5.83-11.89-6.11-4-16.22-3.47-21.86 1.16a13 13 0 0 0-4.71 8c-.08.47-.27 1 .5 1.13 2.21.48 4.4 1 6.74 1.55.09-.47.14-.79.21-1.11a8 8 0 0 1 6.15-6.53 11.25 11.25 0 0 1 6.57.36 6.18 6.18 0 0 1 4.4 5.68c.18 2.11-.6 3.18-2.7 3.52-2.77.43-5.54.83-8.32 1.23a25.27 25.27 0 0 0-8.43 2.2 11.37 11.37 0 0 0-2.84 18c5.65 5.75 16.47 5.08 21.75-1.35.22-.27.32-.66.78-.79.23 1.59 0 3.21.53 4.69H521c-.11-1.33-.31-2.56-.31-3.78-.09-7.31-.06-14.7-.11-22.08zm-8.69 14.66c-1.6 4-4.82 5.65-8.88 6a9.1 9.1 0 0 1-3.91-.32 5.75 5.75 0 0 1-4-5.52 5.44 5.44 0 0 1 4.72-5.4c4.23-.82 8.52-1.36 12.94-2a17 17 0 0 1-.83 7.23zm-166.59-29.23a19.91 19.91 0 0 0-10.4 2.7c-6.26 3.77-9.27 9.52-9.73 16.66-.79 12.21 7.08 21.86 18.86 22.43 6.25.3 11.72-1.55 16-6.25 4-4.37 5.4-9.65 5.35-15.47a19.84 19.84 0 0 0-20.08-20.07zm7.9 31.88c-7 6.28-17.75 2.49-19.75-6.88a18.51 18.51 0 0 1 .29-9.29 11.82 11.82 0 0 1 11.63-8.78c5.72.15 10.06 3.66 11.56 9.36a16.83 16.83 0 0 1 .55 4.53c-.05 4.22-1.02 8.12-4.28 11.05zm208.78-30.6h-7.67v23.17a22.54 22.54 0 0 1-.21 3 8.34 8.34 0 0 1-6.43 7.3c-4 .93-7.79-.25-9.74-3.12a11.27 11.27 0 0 1-1.77-6.57v-22.4c0-.44.14-.9-.16-1.32h-7.51a2.45 2.45 0 0 0-.08.42c0 8.46-.13 16.92 0 25.37s5.6 14.09 13.71 14.69a13.84 13.84 0 0 0 10.66-3.35 23.3 23.3 0 0 0 1.81-2c.38 1.4 0 2.81.51 4.05h7.21c-.6-13.14-.08-26.17-.33-39.24zm44.27 0h-8.16a1.69 1.69 0 0 0-1.61.86c-2.91 4.29-5.86 8.56-8.84 12.9-.37-.5-.72-.95-1.05-1.42q-4-5.73-8-11.45c-.25-.35-.39-.86-1-.86h-9c.37.53.59.86.83 1.19 4.19 5.72 8.37 11.44 12.6 17.13a1.4 1.4 0 0 1 0 2q-6.54 8.85-13 17.74c-.27.38-.52.77-.88 1.3h8.6a1.18 1.18 0 0 0 1.06-.69q1.53-2.25 3.08-4.48l6.38-9.22c.32.43.56.75.79 1.08q4.37 6.21 8.72 12.44c.25.35.41.85 1 .85h8.95l-14.44-20.05zM441.23 24.1h-13v48.29h13zm-92.89 48.26h13.08V24.08h-13.08zm37.8 127.5a14.81 14.81 0 0 0-6.09 5.61v-6h-7.51v39.24h7.65v-1.39-17.81a27 27 0 0 1 .25-3.7c.69-5 3.63-8 8.63-8.71a22.3 22.3 0 0 1 5.22.11V199a13.92 13.92 0 0 0-8.15.86zm48.5-183.68a8.07 8.07 0 0 0 8.18-8 8.14 8.14 0 1 0-16.27 0 8.11 8.11 0 0 0 8.09 8zm-79.79 0a7.92 7.92 0 0 0 8-8A8 8 0 0 0 354.78 0a8.1 8.1 0 0 0-8 8.27 8 8 0 0 0 8.07 7.91z" fill="#00263e"/></svg>